<?xml version="1.0" standalone="no"?>
<!DOCTYPE svg PUBLIC "-//W3C//DTD SVG 20010904//EN"
 "http://www.w3.org/TR/2001/REC-SVG-20010904/DTD/svg10.dtd">
<svg version="1.0" xmlns="http://www.w3.org/2000/svg"
 width="1125.000000pt" height="1125.000000pt" viewBox="0 0 1125.000000 1125.000000"
 preserveAspectRatio="xMidYMid meet">

<g transform="translate(0.000000,1125.000000) scale(0.100000,-0.100000)"
fill="#000000" stroke="none">
<path d="M0 5625 l0 -5625 5625 0 5625 0 -2 5623 -3 5622 -5622 3 -5623 2 0
-5625z m3358 2070 c68 -116 163 -275 210 -355 48 -80 92 -155 99 -168 7 -12
48 -82 91 -155 43 -72 118 -199 167 -282 49 -82 130 -220 181 -305 50 -85 165
-279 254 -430 227 -384 349 -590 455 -770 193 -326 258 -436 275 -465 61 -108
243 -412 251 -420 15 -15 10 -40 -17 -89 l-26 -46 34 -60 33 -61 -23 -39 c-12
-21 -44 -79 -71 -127 -55 -101 -203 -365 -280 -500 -29 -51 -54 -93 -56 -93
-3 0 -14 19 -26 43 -20 38 -74 135 -256 455 -35 62 -74 131 -87 155 -93 168
-388 695 -469 837 -33 58 -72 128 -87 155 -14 28 -97 176 -184 330 -232 412
-339 601 -438 778 -91 163 -202 361 -359 640 -460 817 -519 922 -519 931 0 3
27 6 60 6 33 0 60 3 60 8 0 4 -25 51 -56 106 -30 54 -54 99 -52 101 3 3 676
33 697 31 8 -1 71 -96 139 -211z m4051 153 c-12 -24 -37 -68 -55 -99 -19 -31
-34 -61 -34 -65 0 -5 27 -7 60 -6 40 3 60 0 60 -8 0 -12 1 -11 -203 -375 -77
-137 -164 -295 -195 -350 -30 -55 -80 -145 -111 -200 -63 -110 -111 -200 -111
-207 0 -5 298 37 304 43 2 2 47 78 99 169 52 91 115 200 141 243 25 43 46 81
46 84 0 3 24 46 54 96 65 112 273 474 311 540 15 27 39 70 54 95 l27 47 437 3
436 2 -25 -42 c-14 -24 -30 -52 -37 -63 -40 -65 -57 -96 -57 -104 0 -6 29 -11
65 -13 l65 -3 -221 -370 c-121 -203 -256 -429 -299 -500 -43 -72 -85 -142 -92
-155 -11 -22 -397 -670 -403 -678 -2 -2 -56 -7 -121 -12 -308 -24 -409 -32
-412 -35 -2 -2 31 -71 73 -154 l75 -152 -26 -45 -27 -46 32 -65 32 -65 -57
-102 c-32 -55 -91 -159 -132 -230 -42 -72 -102 -177 -135 -235 -33 -58 -76
-135 -97 -171 -20 -36 -49 -87 -65 -115 -15 -27 -51 -90 -80 -140 -29 -49 -65
-112 -80 -140 -15 -27 -62 -111 -105 -185 -154 -269 -238 -416 -260 -455 -62
-113 -134 -235 -139 -235 -3 0 -52 78 -109 173 -56 94 -125 210 -153 257 -28
47 -77 128 -109 182 l-58 96 34 61 34 62 -29 51 -29 51 26 46 c14 25 55 96 92
156 37 61 127 211 200 335 73 124 157 264 186 312 30 48 54 89 54 91 0 2 43
74 95 162 52 87 95 162 95 167 0 4 -42 8 -92 8 -51 0 -116 3 -144 6 -59 7 -42
27 -202 -222 -152 -235 -280 -434 -363 -562 -42 -64 -100 -154 -129 -200 -47
-74 -54 -81 -65 -65 -12 17 -106 190 -282 515 l-74 138 33 60 33 59 -28 51
-28 51 37 67 c20 37 80 144 134 237 53 94 136 240 185 325 205 361 262 462
330 580 40 69 84 148 100 175 15 28 64 115 110 195 116 203 408 717 435 765
48 86 74 131 83 143 7 9 103 12 418 12 l409 0 -21 -42z m-2676 -280 c96 -161
255 -428 353 -593 98 -165 186 -313 195 -330 9 -16 40 -68 68 -114 28 -46 51
-88 51 -93 0 -5 -11 -26 -25 -46 -14 -20 -25 -43 -25 -50 0 -7 14 -39 32 -71
l31 -57 -163 -274 c-89 -151 -190 -319 -223 -373 l-60 -99 -28 46 c-16 25 -29
49 -29 52 0 3 -35 67 -79 142 -102 179 -240 422 -281 497 -18 33 -56 101 -85
150 -29 50 -67 117 -85 150 -38 69 -38 69 -155 275 -48 85 -113 200 -144 255
-32 55 -102 179 -156 275 -54 96 -118 209 -141 250 l-43 75 64 3 c36 2 65 4
65 6 0 2 -25 48 -55 103 -30 56 -55 103 -55 107 0 3 180 6 400 6 l399 0 174
-292z"/>
<path d="M2538 7644 c-3 -3 11 -35 32 -72 21 -37 76 -136 124 -219 47 -84 86
-154 86 -156 0 -2 38 -70 85 -151 47 -81 85 -149 85 -151 0 -2 41 -74 90 -160
50 -86 90 -158 90 -160 0 -2 31 -57 69 -124 38 -66 86 -151 107 -188 66 -121
225 -405 284 -508 31 -55 70 -125 87 -155 16 -30 59 -107 95 -170 108 -190
730 -1297 783 -1395 15 -27 61 -107 101 -177 41 -69 74 -129 74 -131 0 -3 39
-74 88 -159 48 -84 93 -165 101 -180 18 -35 -1 -63 201 297 89 160 177 316
196 348 37 63 37 53 -10 130 l-17 29 -51 -89 c-28 -48 -103 -180 -166 -293
-146 -262 -135 -247 -153 -212 -7 15 -53 96 -101 180 -49 85 -88 156 -88 158
0 2 -36 68 -81 146 -156 275 -239 422 -544 968 -54 96 -135 240 -180 320 -46
80 -147 260 -226 400 -78 140 -190 338 -247 440 -57 102 -120 214 -139 250
-20 36 -69 123 -109 193 -41 71 -74 130 -74 132 0 2 -40 74 -90 160 -49 86
-90 159 -90 161 0 2 -20 38 -45 80 -25 41 -45 77 -45 80 0 2 -13 25 -29 51
-16 27 -46 80 -67 118 -22 39 -57 103 -79 143 l-40 72 -51 0 c-28 0 -53 -3
-56 -6z"/>
<path d="M7259 7577 c-26 -45 -84 -149 -129 -232 -46 -82 -111 -199 -145 -260
-34 -60 -100 -177 -146 -260 -45 -82 -102 -184 -125 -225 -23 -41 -37 -77 -32
-79 5 -2 33 0 61 3 l52 7 56 102 c30 56 156 282 278 502 123 220 239 428 258
463 l35 62 -59 0 -58 0 -46 -83z"/>
<path d="M8534 7533 c-337 -565 -575 -964 -593 -996 -10 -18 -44 -75 -76 -127
-32 -52 -76 -126 -97 -165 -22 -38 -42 -73 -46 -77 -4 -4 -146 -17 -317 -29
-170 -12 -314 -25 -318 -29 -5 -4 15 -53 43 -109 48 -97 52 -102 78 -97 15 3
133 13 262 22 129 9 238 19 242 23 7 6 228 371 228 376 0 2 41 69 90 150 50
81 90 149 90 151 0 1 37 65 83 141 270 448 507 848 507 857 0 3 -26 6 -59 6
l-58 0 -59 -97z"/>
<path d="M6163 5693 c-39 -59 -153 -236 -255 -393 -101 -157 -205 -316 -230
-355 -25 -38 -64 -100 -88 -138 l-43 -67 -17 27 c-9 16 -39 71 -68 125 -28 53
-81 149 -118 215 -36 65 -70 128 -75 141 -11 29 -18 25 -49 -33 -25 -45 -25
-46 -7 -78 10 -17 41 -74 69 -127 28 -52 54 -99 58 -105 7 -10 46 -81 120
-220 55 -105 80 -145 88 -145 4 0 25 28 46 63 22 34 72 112 111 172 102 156
273 421 406 628 l114 178 161 -3 161 -4 63 104 c34 57 60 105 58 106 -1 2
-100 6 -219 10 l-216 7 -70 -108z"/>
<path d="M7247 5418 c-14 -24 -98 -171 -188 -328 -89 -157 -172 -303 -184
-325 -30 -54 -328 -577 -428 -750 -45 -77 -88 -154 -97 -170 -35 -68 -145
-255 -150 -255 -3 0 -81 129 -174 285 -93 157 -172 285 -175 285 -3 0 -19 -22
-34 -50 l-28 -50 203 -339 c112 -187 206 -341 209 -341 3 0 36 55 74 123 38
67 110 194 160 282 229 397 404 704 430 750 37 68 345 608 412 724 l55 95 -23
49 c-13 26 -26 50 -30 53 -5 2 -19 -15 -32 -38z"/>
<path d="M3770 7624 c0 -7 14 -33 145 -264 49 -85 102 -180 118 -210 16 -30
51 -91 77 -135 26 -44 62 -107 80 -140 18 -33 71 -127 118 -210 173 -306 212
-374 319 -565 61 -107 161 -285 223 -395 62 -110 114 -201 115 -203 2 -2 76
120 165 270 90 150 187 312 215 359 l53 86 -29 46 c-16 26 -32 47 -37 47 -4 0
-21 -24 -38 -52 -17 -29 -98 -165 -179 -302 l-147 -248 -22 38 c-12 22 -67
118 -121 214 -98 175 -196 347 -350 620 -46 80 -136 240 -201 355 -65 116
-148 263 -186 328 -37 65 -68 119 -68 121 0 2 -31 57 -69 122 l-69 119 -56 3
c-31 2 -56 0 -56 -4z"/>
</g>
</svg>
